<?xml version="1.0" encoding="UTF-8"?>
<svg xmlns="http://www.w3.org/2000/svg" xmlns:xlink="http://www.w3.org/1999/xlink" width="500px" height="271px" viewBox="0 0 109 59" version="1.1">
  <!-- Generator: Sketch 46.2 (44496) - http://www.bohemiancoding.com/sketch -->
  <title>logo</title>
  <desc>Created with Sketch.</desc>
  <defs></defs>
  <g id="Symbols" stroke="none" stroke-width="1" fill="none" fill-rule="evenodd">
    <g id="logo">
      <path d="M14.5322,30.7222 C14.5022,30.2762 14.4732,29.8292 14.4732,29.3722 C14.4732,28.9182 14.5022,28.4732 14.5322,28.0292 L14.5322,4.0512 C5.8162,9.1372 0.0012,18.5312 0.0012,29.4582 C0.0012,40.3622 5.7722,49.7172 14.5322,54.8342 L14.5322,30.7222 Z" id="Fill-1" fill="#26A5B8"></path>
      <path d="M20.7285,15.8032 C23.1855,13.8912 26.2095,12.7712 29.5425,12.7712 C35.9275,12.7712 41.1215,16.5172 43.4195,22.7312 L58.5745,22.7312 C57.8935,18.7302 56.1905,15.0702 53.1255,11.1532 C47.4205,3.9162 39.2485,0.0002 29.5425,0.0002 C26.4665,0.0002 23.5075,0.4572 20.7285,1.3072 L20.7285,15.8032 Z" id="Fill-3" fill="#26A5B8"></path>
      <path d="M29.7129,46.2296 C26.3119,46.2296 23.2279,45.0706 20.7289,43.0956 L20.7289,57.5856 C23.6539,58.4976 26.7819,58.9996 30.0539,58.9996 C43.8459,58.9996 55.3399,49.9756 58.5739,36.6936 L43.4199,36.6936 C40.3559,42.9946 35.7579,46.2296 29.7129,46.2296" id="Fill-5" fill="#26A5B8"></path>
      <polygon id="Fill-8" fill="#DD0075" points="65.047 57.893 78.902 57.893 78.902 1.107 65.047 1.107"></polygon>
      <polygon id="Fill-9" fill="#DD0075" points="85.099 36.269 95.441 36.269 95.441 23.498 85.099 23.498"></polygon>
      <polygon id="Fill-10" fill="#DD0075" points="85.0986 1.1075 85.0986 13.8775 102.3256 13.8775 102.3476 13.8995 108.7416 7.5035 108.7416 7.5025 102.3476 1.1075"></polygon>
    </g>
  </g>
</svg>
